# xmcd CD database file
#
# Track frame offsets:
#	150
#	22425
#	41837
#	57985
#	79965
#	94672
#	109140
#	130912
#	150220
#	175082
#	195250
#	212985
#	230062
#	249405
#	270037
#	289475
#
# Disc length: 4199 seconds
#
# Revision: 0
# Processed by: cddbd v1.5.1PL2 Copyright (c) Steve Scherf et al.
# Submitted via: CDex 1.60beta1
#
DISCID=e0106510
DTITLE=やしきたかじん - やしきたかじん ベスト・ヒッツ
DYEAR=1988
DGENRE=General Pop
TTITLE0=砂の十字架
TTITLE1=スターチルドレン
TTITLE2=旅に唄あれば
TTITLE3=ジョーカー
TTITLE4=チャーリーの酒場
TTITLE5=ミナの物語
TTITLE6=過ぎゆく暮らし
TTITLE7=約束
TTITLE8=今宵
TTITLE9=ラストショー
TTITLE10=夢いらんかね
TTITLE11=ルーム・ナンバー301
TTITLE12=この椅子で
TTITLE13=ながばなし
TTITLE14=横顔
TTITLE15=明日になれば
EXTD=YEAR: 1988
EXTT0=
EXTT1=
EXTT2=
EXTT3=
EXTT4=
EXTT5=
EXTT6=
EXTT7=
EXTT8=
EXTT9=
EXTT10=
EXTT11=
EXTT12=
EXTT13=
EXTT14=
EXTT15=
PLAYORDER=
